<?xml version="1.0" encoding="UTF-8"?>
<svg width="256" height="256" viewBox="0 0 256 256" xmlns="http://www.w3.org/2000/svg">
  <defs>
    <!-- Main gradient for background -->
    <radialGradient id="backgroundGradient" cx="50%" cy="30%" r="70%">
      <stop offset="0%" style="stop-color:#2E86AB;stop-opacity:1" />
      <stop offset="70%" style="stop-color:#1f5f7f;stop-opacity:1" />
      <stop offset="100%" style="stop-color:#164555;stop-opacity:1" />
    </radialGradient>
    
    <!-- Gradient for waveform -->
    <linearGradient id="waveGradient" x1="0%" y1="0%" x2="100%" y2="0%">
      <stop offset="0%" style="stop-color:#00ff88;stop-opacity:0.9" />
      <stop offset="30%" style="stop-color:#00ccff;stop-opacity:0.8" />
      <stop offset="60%" style="stop-color:#6666ff;stop-opacity:0.8" />
      <stop offset="100%" style="stop-color:#ff6699;stop-opacity:0.9" />
    </linearGradient>
    
    <!-- Gradient for DJ elements -->
    <linearGradient id="djGradient" x1="0%" y1="0%" x2="100%" y2="100%">
      <stop offset="0%" style="stop-color:#ffffff;stop-opacity:0.9" />
      <stop offset="50%" style="stop-color:#f0f0f0;stop-opacity:0.8" />
      <stop offset="100%" style="stop-color:#dddddd;stop-opacity:0.9" />
    </linearGradient>
    
    <!-- Shadow filter -->
    <filter id="shadowFilter" x="-20%" y="-20%" width="140%" height="140%">
      <feDropShadow dx="2" dy="4" stdDeviation="3" flood-color="#000" flood-opacity="0.3"/>
    </filter>
    
    <!-- Glow effect -->
    <filter id="glowFilter" x="-50%" y="-50%" width="200%" height="200%">
      <feGaussianBlur stdDeviation="4" result="coloredBlur"/>
      <feMerge> 
        <feMergeNode in="coloredBlur"/>
        <feMergeNode in="SourceGraphic"/>
      </feMerge>
    </filter>
  </defs>
  
  <!-- Background circle -->
  <circle cx="128" cy="128" r="120" fill="url(#backgroundGradient)" filter="url(#shadowFilter)"/>
  
  <!-- Inner circle for depth -->
  <circle cx="128" cy="128" r="100" fill="none" stroke="rgba(255,255,255,0.1)" stroke-width="1"/>
  
  <!-- DJ Turntable base -->
  <circle cx="128" cy="128" r="85" fill="url(#djGradient)" opacity="0.2"/>
  <circle cx="128" cy="128" r="75" fill="none" stroke="rgba(255,255,255,0.3)" stroke-width="2"/>
  
  <!-- Vinyl record -->
  <circle cx="128" cy="128" r="65" fill="#2a2a2a" filter="url(#shadowFilter)"/>
  <circle cx="128" cy="128" r="60" fill="#1a1a1a"/>
  
  <!-- Record grooves -->
  <circle cx="128" cy="128" r="50" fill="none" stroke="rgba(255,255,255,0.05)" stroke-width="1"/>
  <circle cx="128" cy="128" r="40" fill="none" stroke="rgba(255,255,255,0.05)" stroke-width="1"/>
  <circle cx="128" cy="128" r="30" fill="none" stroke="rgba(255,255,255,0.05)" stroke-width="1"/>
  
  <!-- Center spindle -->
  <circle cx="128" cy="128" r="8" fill="url(#djGradient)"/>
  <circle cx="128" cy="128" r="5" fill="#666"/>
  
  <!-- Tonearm (simplified) -->
  <g transform="rotate(25 128 128)">
    <rect x="85" y="126" width="35" height="4" rx="2" fill="url(#djGradient)" filter="url(#shadowFilter)"/>
    <circle cx="120" cy="128" r="3" fill="#888"/>
  </g>
  
  <!-- Waveform visualization (key feature) -->
  <g transform="translate(40, 200)" filter="url(#glowFilter)">
    <!-- Waveform bars representing frequency spectrum -->
    <rect x="0" y="20" width="3" height="15" fill="url(#waveGradient)"/>
    <rect x="6" y="15" width="3" height="25" fill="url(#waveGradient)"/>
    <rect x="12" y="10" width="3" height="35" fill="url(#waveGradient)"/>
    <rect x="18" y="5" width="3" height="45" fill="url(#waveGradient)"/>
    <rect x="24" y="0" width="3" height="55" fill="url(#waveGradient)"/>
    <rect x="30" y="8" width="3" height="39" fill="url(#waveGradient)"/>
    <rect x="36" y="12" width="3" height="31" fill="url(#waveGradient)"/>
    <rect x="42" y="18" width="3" height="19" fill="url(#waveGradient)"/>
    <rect x="48" y="22" width="3" height="11" fill="url(#waveGradient)"/>
    
    <!-- More bars for fuller spectrum -->
    <rect x="60" y="25" width="3" height="8" fill="url(#waveGradient)"/>
    <rect x="66" y="20" width="3" height="18" fill="url(#waveGradient)"/>
    <rect x="72" y="15" width="3" height="28" fill="url(#waveGradient)"/>
    <rect x="78" y="10" width="3" height="38" fill="url(#waveGradient)"/>
    <rect x="84" y="5" width="3" height="48" fill="url(#waveGradient)"/>
    <rect x="90" y="12" width="3" height="34" fill="url(#waveGradient)"/>
    <rect x="96" y="18" width="3" height="22" fill="url(#waveGradient)"/>
    <rect x="102" y="22" width="3" height="14" fill="url(#waveGradient)"/>
    <rect x="108" y="26" width="3" height="6" fill="url(#waveGradient)"/>
    
    <!-- Extended spectrum -->
    <rect x="120" y="24" width="3" height="10" fill="url(#waveGradient)"/>
    <rect x="126" y="19" width="3" height="20" fill="url(#waveGradient)"/>
    <rect x="132" y="14" width="3" height="30" fill="url(#waveGradient)"/>
    <rect x="138" y="9" width="3" height="40" fill="url(#waveGradient)"/>
    <rect x="144" y="6" width="3" height="46" fill="url(#waveGradient)"/>
    <rect x="150" y="11" width="3" height="36" fill="url(#waveGradient)"/>
    <rect x="156" y="16" width="3" height="26" fill="url(#waveGradient)"/>
    <rect x="162" y="21" width="3" height="16" fill="url(#waveGradient)"/>
    <rect x="168" y="25" width="3" height="8" fill="url(#waveGradient)"/>
  </g>
  
  <!-- Musical note symbols for context -->
  <g transform="translate(50, 80)" fill="rgba(255,255,255,0.6)" filter="url(#glowFilter)">
    <!-- Treble clef symbol (simplified) -->
    <path d="M8,5 C12,5 15,8 15,12 C15,16 12,19 8,19 C6,19 4,17 4,15 C4,13 6,11 8,11 C10,11 12,13 12,15 M8,0 C8,0 6,2 6,8 C6,14 8,20 8,26" 
          stroke="currentColor" stroke-width="1.5" fill="none"/>
  </g>
  
  <!-- Musical note symbols on the right -->
  <g transform="translate(180, 60)" fill="rgba(255,255,255,0.6)" filter="url(#glowFilter)">
    <!-- Eighth notes -->
    <circle cx="5" cy="15" r="3" fill="currentColor"/>
    <rect x="8" y="5" width="1.5" height="12" fill="currentColor"/>
    <circle cx="15" cy="20" r="3" fill="currentColor"/>
    <rect x="18" y="10" width="1.5" height="12" fill="currentColor"/>
    <!-- Beam connecting notes -->
    <path d="M9.5,5 L19.5,10 L19.5,12 L9.5,7 Z" fill="currentColor"/>
  </g>
  
  <!-- Organization/folder icon integrated -->
  <g transform="translate(180, 180)" fill="rgba(255,255,255,0.7)" filter="url(#glowFilter)">
    <!-- Folder icon -->
    <path d="M2,8 L2,22 L26,22 L26,10 L14,10 L12,8 Z" 
          fill="rgba(255,255,255,0.1)" 
          stroke="currentColor" 
          stroke-width="1.5"/>
    <!-- Files inside folder -->
    <rect x="6" y="13" width="8" height="1" fill="currentColor" opacity="0.6"/>
    <rect x="6" y="15" width="12" height="1" fill="currentColor" opacity="0.6"/>
    <rect x="6" y="17" width="10" height="1" fill="currentColor" opacity="0.6"/>
  </g>
  
  <!-- DJ mixing symbol -->
  <g transform="translate(45, 180)" fill="rgba(255,255,255,0.7)" filter="url(#glowFilter)">
    <!-- Crossfader -->
    <rect x="5" y="12" width="20" height="4" rx="2" fill="rgba(255,255,255,0.2)" stroke="currentColor" stroke-width="1"/>
    <rect x="13" y="10" width="4" height="8" rx="1" fill="currentColor"/>
    <!-- Channel indicators -->
    <circle cx="8" cy="8" r="2" fill="rgba(0,255,136,0.6)"/>
    <circle cx="22" cy="8" r="2" fill="rgba(255,102,153,0.6)"/>
  </g>
  
  <!-- Subtle brand text (very small) -->
  <text x="128" y="245" text-anchor="middle" font-family="Arial, sans-serif" font-size="9" 
        fill="rgba(255,255,255,0.4)" font-weight="300">MusicFlow</text>
  
  <!-- Highlight shine effect -->
  <ellipse cx="100" cy="90" rx="40" ry="20" fill="rgba(255,255,255,0.15)" 
           transform="rotate(-25 100 90)" opacity="0.8"/>
</svg>